# xmcd
#
# Track frame offsets:
#	150
#	19185
#	30757
#	41885
#	55677
#	67265
#	79562
#	95862
#	109885
#	123125
#	140727
#	155345
#	171212
#	185152
#
# Disc length: 2659 seconds
#
# Revision: 2
# Processed by: cddbd v1.5.2PL0 Copyright (c) Steve Scherf et al.
# Submitted via: audiograbber 1.83.01
#
DISCID=c00a610e
DTITLE=Helio Portinhal - A Volta do Trovador
DYEAR=2000
DGENRE=Seresta
TTITLE0=Senhora
TTITLE1=Fio de Cabelo
TTITLE2=Nenhum de Voces
TTITLE3=Sinfonia da Mata
TTITLE4=A Volta do Trovador
TTITLE5=Eu Queria
TTITLE6=Com Que Direito
TTITLE7=Reencontro
TTITLE8=Pout Porri
TTITLE9=De Repente
TTITLE10=Não Dá Pra Te Esquecer
TTITLE11=Pout Porri - Anisio Silva
TTITLE12=24 Horas de Amor
TTITLE13=Aquela Janela Virada Pro Mar
EXTD=Dados Por - Dayvison de Azevedo - Recife - PE\nFacebook - https://www.face
EXTD=book.com/profile.php?id=100006142608616
EXTT0=
EXTT1=
EXTT2=
EXTT3=
EXTT4=
EXTT5=
EXTT6=
EXTT7=
EXTT8=
EXTT9=
EXTT10=
EXTT11=
EXTT12=
EXTT13=
PLAYORDER=
